<svg xmlns="http://www.w3.org/2000/svg" viewBox="0 0 187.08 66.54"><defs><style>.cls-1{fill:#fbb040;}.cls-2{fill:#8f499c;}</style></defs><title>Logo Farsi</title><g id="Layer_2" data-name="Layer 2"><g id="Layer_1-2" data-name="Layer 1"><rect class="cls-1" x="142.68" y="22.14" width="21.65" height="21.65" transform="translate(68.27 -98.89) rotate(45)"/><polygon class="cls-2" points="153.51 17.66 164.35 6.93 159.64 2.2 157.4 9.2 157.4 0 149.6 0 149.6 9.2 147.51 2.2 142.78 6.93 153.51 17.66"/><polygon class="cls-2" points="153.51 48.28 164.35 59.01 159.64 63.73 157.39 56.74 157.39 66.54 149.6 66.54 149.6 56.74 147.51 63.73 142.78 59.01 153.51 48.28"/><polygon class="cls-2" points="138.2 32.97 127.47 22.14 122.74 26.84 129.74 29.09 119.94 29.09 119.94 36.88 129.74 36.88 122.74 38.97 127.47 43.7 138.2 32.97"/><polygon class="cls-2" points="168.82 32.97 179.55 22.14 184.28 26.84 177.28 29.09 187.08 29.09 187.08 36.88 177.28 36.88 184.28 38.97 179.55 43.7 168.82 32.97"/><polygon class="cls-2" points="145.87 40.64 130.61 40.56 130.6 47.23 137.14 43.87 130.21 50.8 135.72 56.31 142.65 49.38 139.18 55.81 145.91 55.87 145.87 40.64"/><polygon class="cls-2" points="161.18 25.33 161.13 10.11 167.77 10.06 164.41 16.6 171.34 9.67 176.85 15.18 169.92 22.11 176.35 18.64 176.37 25.35 161.18 25.33"/><polygon class="cls-2" points="161.2 40.59 161.13 55.83 167.79 55.85 164.44 49.31 171.37 56.25 176.88 50.74 169.95 43.8 176.37 47.27 176.4 40.56 161.2 40.59"/><polygon class="cls-2" points="145.9 25.28 130.65 25.35 130.63 18.68 137.17 22.04 130.24 15.11 135.75 9.6 142.68 16.53 139.21 10.11 145.93 10.07 145.9 25.28"/><path class="cls-2" d="M0,56H21.19c.69,0,.6-.09.6.6s0,1.12,0,1.68c0,.22-.07.31-.29.3H.63l-.63,0Z"/><path class="cls-2" d="M0,33.78a.55.55,0,0,0,.31,0H15.59c.61,0,.55,0,.55.53v1.72c0,.34,0,.34-.36.35H0Z"/><path class="cls-2" d="M32,19c.11.52.19,1,.33,1.46a7.88,7.88,0,0,0,.7,1.67,3.09,3.09,0,0,0,2.87,1.65h5.22c1.5,0,3-.06,4.49-.21l.85-.11c.09-.19-.06-.3-.13-.42-.75-1.26-1.63-2.44-2.48-3.63-.75-1-1.54-2-2.34-3a.66.66,0,0,1-.13-.7c.55-1.74,1.08-3.49,1.61-5.24a.65.65,0,0,1,.4-.44l10.14-4.2c.08,0,.17-.06.31-.11l-.46,2.71,2.76-.67c.08.16,0,.27,0,.37-.28,1-.59,2-.86,3.06a.64.64,0,0,1-.5.5C52,12.4,49.32,13.2,46.6,14a1.06,1.06,0,0,0-.33.14l1.5,1.81c1.18,1.41,2.34,2.83,3.53,4.22a17.8,17.8,0,0,0,3,2.85,3.18,3.18,0,0,0,2.27.74c.44,0,.88,0,1.32,0a2.76,2.76,0,0,0,2.52-1.78,6.39,6.39,0,0,0,.44-2.07c0-.27.11-.36.38-.38,1-.06,2-.16,2.94-.23.35,0,.36,0,.31.34-.15,1.14-.33,2.27-.48,3.41-.13,1-.2.77.64.79h1.18a1.28,1.28,0,0,0,1.09-.54A3.44,3.44,0,0,0,67.47,22a13.64,13.64,0,0,0,.37-2.55c0-.36,0-.36.39-.39l3.31-.23c.38,0,.39,0,.37.36,0,1.14-.12,2.29-.18,3.44,0,.54,0,.54.53.65l2.46.5a5,5,0,0,0-.1-1.12c-.12-1.14-.27-2.28-.41-3.42-.08-.61-.08-.61.51-.85l4-1.58c.37-.15.37-.14.41.23.19,1.77.3,3.53.34,5.3a15.33,15.33,0,0,1-1.32,7,2.56,2.56,0,0,0-.11.24.26.26,0,0,1-.35.19l-.58-.13-6.35-1.48a.61.61,0,0,0-.59.12,4,4,0,0,1-1.83.73,14.37,14.37,0,0,1-5.19.12,5.3,5.3,0,0,1-1.59-.52.38.38,0,0,0-.42-.06,8.45,8.45,0,0,1-3.85.63,12.61,12.61,0,0,1-2.13-.08,5.35,5.35,0,0,1-2.78-1.35,9.88,9.88,0,0,1-1.78-2c-.09-.12-.13-.28-.27-.36s-.1.11-.12.18a4.71,4.71,0,0,1-2.74,2.8,9.38,9.38,0,0,1-3,.7c-3.08.21-6.17.18-9.25.11a7.06,7.06,0,0,1-2.52-.53l-.2-.08a1.58,1.58,0,0,0-.21.57,12.61,12.61,0,0,1-2.72,4.82,7.91,7.91,0,0,1-4,2.41,5.7,5.7,0,0,1-3.6-.28A12.36,12.36,0,0,1,18.76,34c-.1-.08-.16-.15-.09-.3.51-1,.95-2.06,1.49-3.05,0,0,0,0,.05,0l.22.14A4.72,4.72,0,0,0,25.5,31a7.84,7.84,0,0,0,2.78-2.43,15.22,15.22,0,0,0,1.23-2,.51.51,0,0,0,0-.58,12.35,12.35,0,0,1-1.63-3.87.35.35,0,0,1,.17-.44l3.76-2.62A1.28,1.28,0,0,1,32,19Z"/><path class="cls-2" d="M90.88,24.11a8.25,8.25,0,0,0,1-1A1.4,1.4,0,0,0,92.28,22c-.18-2.14-.31-4.29-.45-6.43-.1-1.52-.19-3-.31-4.57a.52.52,0,0,1,.35-.59c1.36-.63,2.7-1.3,4-1.95a.82.82,0,0,1,.4-.13,1.52,1.52,0,0,1,0,.52q0,7,0,14c0,.57,0,.56.55.7a6.56,6.56,0,0,0,1.71.2h4.95c.19,0,.22-.08.19-.25-.1-.43-.18-.86-.27-1.29-.2-.92-.39-1.83-.59-2.75a1.13,1.13,0,0,0,0-.18c-.06-.21,0-.32.23-.39.75-.25,1.49-.52,2.23-.78l2-.69c.31-.11.32-.1.37.23a52.41,52.41,0,0,1,.65,5.44,5.76,5.76,0,0,1-.78,3.44,5.18,5.18,0,0,1-3,2.18,12.29,12.29,0,0,1-2.82.45,33.83,33.83,0,0,1-3.9,0,8.74,8.74,0,0,1-1.83-.3,3.81,3.81,0,0,1-1.81-1.07c-.22-.25-.23-.24-.48,0a16.17,16.17,0,0,1-6.65,3.86,16.9,16.9,0,0,1-3.15.63.32.32,0,0,1-.39-.2c-.61-1.41-1.22-2.83-1.84-4.24a.13.13,0,0,1,0-.16,2.64,2.64,0,0,1,.64-.05A18.55,18.55,0,0,0,86.73,27a6.29,6.29,0,0,0,1-.36c.37-.16.38-.19.3-.58a9.77,9.77,0,0,0-1-2.81,20.64,20.64,0,0,0-3.35-4.44c-.91-1-1.9-1.83-2.84-2.74-.31-.29-.31-.3-.15-.68l1.65-4.13a.62.62,0,0,1,.16-.31c.08,0,.12,0,.16.09A66,66,0,0,1,88,16.77a14.19,14.19,0,0,1,2.21,3.73,9.72,9.72,0,0,1,.61,3.28C90.82,23.88,90.78,24,90.88,24.11Z"/><path class="cls-2" d="M60.75,40v9.27c0,.11,0,.21,0,.32s0,.32.28.29H72.11a7.18,7.18,0,0,0,1.13,0c.23,0,.34-.12.32-.37,0-.41-.06-.82-.08-1.23s0-.35.31-.43l2-.52c.3-.08.33,0,.35.27a7.86,7.86,0,0,0,.26,1.6c.17.55.24.56.67.19a32.77,32.77,0,0,1,3.59-2.85,7.38,7.38,0,0,1,2.28-1.09,3,3,0,0,1,3.72,2.43,3.72,3.72,0,0,1,0,1.66.65.65,0,0,0,0,.37,2.89,2.89,0,0,0,.72,0A17.54,17.54,0,0,0,90,49.77a4.57,4.57,0,0,0,1-.27c.19-.08.24-.18.18-.39-.22-.71-.42-1.42-.62-2.13-.11-.4-.11-.4.25-.58l2.22-1,.44-.19c.14.64.2,1.27.29,1.9a10.4,10.4,0,0,0,.35,1.73,2.26,2.26,0,0,0,.26.62.81.81,0,0,0,.78.45c2,0,4,0,6-.11.29,0,.57-.06.86-.07s.29-.08.24-.28a4.77,4.77,0,0,0-.2-.92,2.84,2.84,0,0,1-1.58.52,2.37,2.37,0,0,1-1.51-.36,1.43,1.43,0,0,1-.71-1.2,2.6,2.6,0,0,1,.15-1.07A22.22,22.22,0,0,1,100,42.79a.28.28,0,0,1,.4-.16,9.35,9.35,0,0,1,1.73.8,4.39,4.39,0,0,1,2.09,3.19,12.16,12.16,0,0,1,.12,2.89,3.57,3.57,0,0,1-2.47,3.27,7.19,7.19,0,0,1-2.09.42,48.57,48.57,0,0,1-5.26,0,2.84,2.84,0,0,1-2-.83c-.07-.08-.15-.14-.26,0a3.16,3.16,0,0,1-2.11.83,15.46,15.46,0,0,1-3.66,0,5.11,5.11,0,0,1-1.72-.56.51.51,0,0,0-.58,0,5.46,5.46,0,0,1-2.74.68c-1.3,0-2.6,0-3.9,0a4,4,0,0,1-2.21-.59.24.24,0,0,0-.32,0,3.08,3.08,0,0,1-1.66.53c-.45,0-.91.06-1.36.07H62.65a9.43,9.43,0,0,1-1.76-.14,3.15,3.15,0,0,1-2.61-2.72c-.06-.44-.12-.87-.14-1.31-.11-2.39-.2-4.78-.32-7.16a.63.63,0,0,1,.41-.7c.71-.35,1.39-.73,2.08-1.1A.94.94,0,0,1,60.75,40Zm19.12,9.8,0,.09a24.13,24.13,0,0,0,2.55-.07,3.9,3.9,0,0,0,1-.27.65.65,0,0,0,.4-.28c-.34-.29-.67-.56-1-.86a.32.32,0,0,0-.44,0l-2,1.13Z"/><path class="cls-2" d="M70.42,36.41H32.87c-.66,0-.59.11-.59-.61,0-.54,0-1.09,0-1.63,0-.35,0-.35.36-.36H108c.66,0,.66,0,.66.65s0,1,0,1.58c0,.36,0,.37-.38.37H70.42Z"/><path class="cls-2" d="M77.91,55.74h30.14c.63,0,.56-.08.57.55s0,1.33,0,2c0,.24-.07.34-.31.32H47.75c-.75,0-.65.09-.66-.64s0-1.27,0-1.91c0-.23.08-.33.31-.31H77.91Z"/><path class="cls-2" d="M15.25,14.75c.13.86.25,1.67.36,2.47.24,1.7.47,3.39.7,5.08a10.51,10.51,0,0,1,.1,2.44A5,5,0,0,1,15,27.6a10.33,10.33,0,0,1-4.68,2.91,10.52,10.52,0,0,1-3.66.54,8,8,0,0,1-3.36-.82,5.11,5.11,0,0,1-2.8-4,10.23,10.23,0,0,1,.4-4,39.24,39.24,0,0,1,1.74-4.91.94.94,0,0,1,.11-.17L5.45,18.8c.17.1.18.21.12.38-.19.52-.37,1.05-.54,1.58a10.32,10.32,0,0,0-.5,1.89c-.3,2,1,2.84,2.46,3a10.54,10.54,0,0,0,2.57-.19A19.23,19.23,0,0,0,12,24.88c.54-.17.49-.06.38-.6q-.74-3.44-1.49-6.87c-.12-.58-.13-.58.4-.82L15,14.87Z"/><path class="cls-2" d="M23.2,8.27a.82.82,0,0,1,.05.46q0,9.07,0,18.15a.64.64,0,0,1-.39.66c-1.32.7-2.63,1.42-3.95,2.13a1.17,1.17,0,0,1-.44.2,1,1,0,0,1-.05-.47c0-6.12,0-12.24,0-18.37a.68.68,0,0,1,.46-.71c1.3-.61,2.58-1.25,3.87-1.88A1.23,1.23,0,0,1,23.2,8.27Z"/><path class="cls-2" d="M16.85,47.93A7.06,7.06,0,0,0,17,49c.17.61.41.78,1,.76a10.46,10.46,0,0,0,1.76-.22c.43-.09.44-.12.36-.54-.22-1.07-.44-2.13-.65-3.2-.06-.27-.22-.55-.12-.79s.42-.34.64-.49l1.89-1.26.25-.13a3.47,3.47,0,0,1,.16,1c.15,1,.26,2,.39,3A4.87,4.87,0,0,0,23.25,49a1.57,1.57,0,0,0,1.5.89c1.18,0,2.36,0,3.54,0a.81.81,0,0,0,.43,0,15.9,15.9,0,0,0-.33-1.67c-.15-.75-.33-1.48-.49-2.22-.08-.4-.08-.4.32-.54l2.27-.8c.37-.12.38-.12.45.23.24,1.22.44,2.44.58,3.68a7.16,7.16,0,0,1,0,1.85,3,3,0,0,1-2.29,2.59,6.32,6.32,0,0,1-1.61.28,36.24,36.24,0,0,1-3.9,0,2.89,2.89,0,0,1-2.46-1.14,1.11,1.11,0,0,0-.38.24,7,7,0,0,1-4,1.25,2.2,2.2,0,0,1-2.42-2.22,21.32,21.32,0,0,1-.06-2.26c0-.17,0-.29.21-.35Z"/><path class="cls-2" d="M35.87,40v9.38c0,.53-.06.49.48.49H40.6c-.07-.59-.22-1.13-.32-1.67S40,47,39.91,46.46c0-.16,0-.23.14-.28l2.65-.93c.2-.07.24,0,.26.2.11.79.24,1.58.35,2.38,0,.41.09.84.14,1.26a4.91,4.91,0,0,1-.08,1.53,2.9,2.9,0,0,1-1.63,2.06,5.48,5.48,0,0,1-2.14.52,18.16,18.16,0,0,1-3,0,4.3,4.3,0,0,1-1.57-.41,3.34,3.34,0,0,1-1.76-2.88c-.09-.92-.09-1.84-.14-2.76-.1-1.77-.15-3.54-.24-5.31a.51.51,0,0,1,.32-.56c.74-.38,1.46-.78,2.2-1.17A.63.63,0,0,1,35.87,40Z"/><path class="cls-2" d="M50,48a2.6,2.6,0,0,1,.07.64,1.11,1.11,0,0,0,1.17,1.13,7.24,7.24,0,0,0,2-.17c.24,0,.47-.11.7-.18s.17-.1.12-.23a5.79,5.79,0,0,0-1.61-2.54,2.27,2.27,0,0,0-1.13-.55c-.17,0-.22-.09-.16-.27.28-.8.53-1.61.81-2.4a.86.86,0,0,1,1-.55,2.31,2.31,0,0,1,1.41.65,5.19,5.19,0,0,1,1,1.41,9.23,9.23,0,0,1,1,4.86,3.3,3.3,0,0,1-1.89,2.85,5.74,5.74,0,0,1-2.67.6c-.53,0-1.06,0-1.59,0A2.33,2.33,0,0,1,48,51.08a10.08,10.08,0,0,1-.09-1.9.46.46,0,0,1,.35-.5C48.82,48.48,49.39,48.24,50,48Z"/><path class="cls-2" d="M101.85,9.21l3.26,3.25,3.25-3.23a.37.37,0,0,1,.25.15l2.82,2.83c.25.25.25.26,0,.5-.94.94-1.88,1.88-2.81,2.83-.17.17-.27.17-.44,0-.92-.94-1.85-1.87-2.78-2.8-.28-.27-.28-.27-.56,0l-2.66,2.67a1.27,1.27,0,0,1-.39.31c-.36-.37-.72-.76-1.09-1.13-.64-.65-1.28-1.29-1.93-1.93-.14-.14-.19-.23,0-.4C99.79,11.27,100.8,10.25,101.85,9.21Z"/><path class="cls-2" d="M24.17,57.37l2-2,2,2,1.57-1.57c.16-.15.28-.42.5-.43s.34.27.49.43c.51.49,1,1,1.55,1.53.33-.34.67-.67,1-1s.56-.54.83-.83.25-.15.4,0c.56.58,1.13,1.14,1.69,1.71l.14.12,1.77-1.76c.26-.26.23-.3.53,0,.47.49,1,1,1.44,1.45a1.29,1.29,0,0,0,.37.31c.55-.54,1.1-1.1,1.65-1.65s.3-.42.72,0,1,1,1.47,1.47c.17.16.19.26,0,.43-.55.53-1.07,1.07-1.61,1.61-.22.21-.23.21-.46,0l-1.48-1.47c-.36-.37-.28-.38-.64,0s-1,1-1.48,1.48c-.25.25-.25.25-.49,0l-1.78-1.77a8,8,0,0,0-.89.85q-.5.46-1,1c-.15.16-.25.17-.41,0-.49-.51-1-1-1.5-1.52a1.3,1.3,0,0,0-.41-.32l-.85.92-.87.87c-.24.23-.24.24-.49,0-.53-.52-1.05-1-1.57-1.57-.16-.17-.27-.18-.43,0-.52.53-1,1.05-1.57,1.57-.25.25-.25.25-.49,0C25.34,58.54,24.75,58,24.17,57.37Z"/><path class="cls-2" d="M1.06,50l.36.23a2.73,2.73,0,0,0,2.48.23,5.32,5.32,0,0,0,2.59-2.32c.1-.17,0-.28,0-.41a7.79,7.79,0,0,0-1.19-1.49c-.31-.3-.3-.22-.11-.6l1.3-2.44c0-.08.09-.15.15-.25,1.66,1.48,2.59,3.21,2.14,5.48A6.79,6.79,0,0,1,5.89,53a3.77,3.77,0,0,1-4.19.23,9,9,0,0,1-1.45-1c-.1-.08-.17-.15-.09-.3C.46,51.3.75,50.68,1.06,50Z"/><path class="cls-2" d="M108.56,40.25a.83.83,0,0,1,0,.46c0,3.65,0,7.29,0,10.94a.65.65,0,0,1-.38.67c-.73.36-1.44.77-2.16,1.15l-.4.2a.51.51,0,0,1-.06-.37c0-3.74,0-7.47,0-11.21a.57.57,0,0,1,.39-.61c.74-.34,1.46-.71,2.2-1.07Z"/><path class="cls-2" d="M10.12,53.63a.78.78,0,0,1,0-.4c0-3.7,0-7.41,0-11.11a.6.6,0,0,1,.41-.65c.85-.39,1.68-.82,2.54-1.24a.6.6,0,0,1,.06.36q0,5.56,0,11.12a.54.54,0,0,1-.33.57c-.76.39-1.51.81-2.27,1.22C10.37,53.56,10.27,53.67,10.12,53.63Z"/><path class="cls-2" d="M75.6,9.31l3.18,3.15c0,.09-.08.14-.14.2l-2.85,2.86c-.11.11-.2.27-.4.07-1-1-2.06-2-3.06-3Z"/><path class="cls-2" d="M65.76,12.53A.64.64,0,0,1,66,12.2l2.79-2.79c.22-.23.23-.23.45,0l2.82,2.83c.23.22.22.23,0,.46l-2.82,2.83c-.15.16-.25.21-.43,0C67.79,14.53,66.76,13.52,65.76,12.53Z"/><path class="cls-2" d="M65.63,12.5l-3.22,3.18-.07,0-3-3c-.15-.15-.16-.24,0-.4,1-1,2-2,3-3Z"/><path class="cls-2" d="M9.51,12.35c-.41,1-.83,2-1.25,3-.09.21-.18.41-.26.62a.17.17,0,0,1-.25.11l-.5-.21L4.33,14.63C4,14.5,4,14.5,4.16,14.2c.48-1.14,1-2.27,1.45-3.41.07-.17.12-.3.35-.18,1.14.56,2.29,1.09,3.43,1.64A.48.48,0,0,1,9.51,12.35Z"/><path class="cls-2" d="M93.05,38.09c.45.45.91.9,1.34,1.35.22.23.6.41.6.69s-.37.45-.58.66l-1.32,1.33-2-2a.8.8,0,0,0-.41.3c-.51.51-1,1-1.54,1.54-.12.13-.21.17-.36,0-.56-.58-1.13-1.14-1.7-1.71a.2.2,0,0,1,0-.33c.57-.57,1.14-1.13,1.7-1.71.14-.15.24-.11.37,0l1.57,1.57c.27.28.27.27.55,0Z"/><path class="cls-2" d="M102.42,38.13l2,2-2,2-1.94-1.93-2,2-2.07-2.06,1.84-1.85c.12-.12.2-.05.29,0l1,1,.58.57c.36.36.3.38.65,0l1.42-1.42Z"/></g></g></svg>