<?xml version="1.0" encoding="UTF-8"?>
<svg id="Layer_1" data-name="Layer 1" xmlns="http://www.w3.org/2000/svg" xmlns:xlink="http://www.w3.org/1999/xlink" viewBox="0 0 513.59 297.57">
  <defs>
    <style>
      .cls-1 {
        fill: #fff;
      }

      .cls-1, .cls-2 {
        stroke-width: 0px;
      }

      .cls-2 {
        fill: url(#radial-gradient);
      }
    </style>
    <radialGradient id="radial-gradient" cx="50.82" cy="412.39" fx="50.82" fy="412.39" r="78.05" gradientTransform="translate(-105.72 -195.24) rotate(-30)" gradientUnits="userSpaceOnUse">
      <stop offset="0" stop-color="#fbb224"/>
      <stop offset=".6" stop-color="#b34197"/>
      <stop offset="1" stop-color="#73489c"/>
    </radialGradient>
  </defs>
  <g>
    <path class="cls-1" d="M261.78,107.72c0-.83.22-1.48.66-1.94.44-.46,1.09-.69,1.94-.69h3.77c.83,0,1.47.23,1.92.67.45.45.67,1.1.67,1.95v8.44c0,1.23-.13,2.27-.4,3.11-.27.84-.66,1.54-1.17,2.09-.52.55-1.25.98-2.21,1.28-.96.3-2.03.51-3.22.62-1.19.12-2.68.18-4.48.18-5.79,0-10.18-1.49-13.16-4.46-2.98-2.97-4.47-7.18-4.47-12.62,0-6.71,2.19-11.5,6.58-14.39,4.39-2.88,10.53-3.46,18.44-1.75,1.55.32,2.32,1.28,2.32,2.9v2.32c0,.88-.25,1.53-.76,1.95-.51.42-1.23.55-2.18.4-2.35-.36-4.35-.55-6.02-.55s-3.09.17-4.27.5-2.11.88-2.78,1.65c-.67.77-1.17,1.71-1.47,2.82-.31,1.12-.46,2.5-.46,4.15,0,3.06.58,5.34,1.75,6.82,1.17,1.48,2.99,2.22,5.47,2.22,1.47,0,2.42-.13,2.87-.37.45-.25.67-.77.67-1.57v-5.72Z"/>
    <path class="cls-1" d="M303.28,119.86c.5.9.57,1.65.22,2.24-.35.59-1.03.89-2.05.89h-4.77c-1.45,0-2.47-.65-3.05-1.95l-5.32-11.57h-3.32v10.92c0,.85-.22,1.5-.66,1.94s-1.09.66-1.93.66h-3.85c-.85,0-1.5-.22-1.93-.66-.44-.44-.66-1.09-.66-1.94v-23.2c0-2.73.65-4.65,1.95-5.77,1.3-1.12,3.35-1.67,6.14-1.67h4.55c2.56,0,4.74.16,6.53.47,1.79.32,3.37.86,4.73,1.62s2.38,1.82,3.05,3.17c.67,1.35,1,3.01,1,4.97,0,2.45-.54,4.36-1.62,5.75-1.08,1.38-2.77,2.37-5.07,2.97l6.07,11.16ZM285,98.13v5.24h4.7c1.95,0,3.3-.28,4.06-.83s1.14-1.45,1.14-2.67-.38-2.11-1.15-2.67c-.76-.56-2.11-.83-4.04-.83h-2.85c-.73,0-1.22.15-1.47.44-.25.29-.37.74-.37,1.34Z"/>
    <path class="cls-1" d="M316.95,122.98c-2.8,0-4.84-.56-6.14-1.67-1.3-1.12-1.95-3.04-1.95-5.77v-18.36c0-2.73.65-4.65,1.95-5.77,1.3-1.12,3.35-1.67,6.14-1.67h14.61c.85,0,1.5.22,1.95.66.45.44.67,1.09.67,1.94v1.92c0,.83-.23,1.47-.67,1.92s-1.1.68-1.95.68h-11.56c-.83,0-1.39.14-1.67.41-.28.27-.43.73-.43,1.36v4.14h11.26c.85,0,1.5.22,1.94.66.44.44.66,1.09.66,1.93v1.7c0,.85-.22,1.5-.66,1.95-.44.45-1.09.67-1.94.67h-11.26v4.4c0,.63.14,1.08.43,1.35.28.26.84.4,1.67.4h12.44c.85,0,1.5.23,1.94.69s.66,1.1.66,1.93v1.92c0,.85-.22,1.5-.66,1.94s-1.09.66-1.94.66h-15.48Z"/>
    <path class="cls-1" d="M347.23,122.98c-2.8,0-4.84-.56-6.14-1.67s-1.95-3.04-1.95-5.77v-18.36c0-2.73.65-4.65,1.95-5.77,1.3-1.12,3.35-1.67,6.14-1.67h14.61c.85,0,1.5.22,1.95.66.45.44.67,1.09.67,1.94v1.92c0,.83-.23,1.47-.67,1.92s-1.1.68-1.95.68h-11.56c-.83,0-1.39.14-1.67.41-.28.27-.43.73-.43,1.36v4.14h11.26c.85,0,1.5.22,1.94.66.44.44.66,1.09.66,1.93v1.7c0,.85-.22,1.5-.66,1.95-.44.45-1.09.67-1.94.67h-11.26v4.4c0,.63.14,1.08.43,1.35.28.26.84.4,1.67.4h12.44c.85,0,1.5.23,1.94.69s.66,1.1.66,1.93v1.92c0,.85-.22,1.5-.66,1.94s-1.09.66-1.94.66h-15.48Z"/>
    <path class="cls-1" d="M372.33,122.98c-.85,0-1.5-.22-1.93-.66-.44-.44-.66-1.09-.66-1.94v-24.32c0-2.4.44-4.05,1.34-4.96.89-.91,2.51-1.36,4.86-1.36.9,0,1.67.07,2.3.2.63.13,1.27.39,1.91.77s1.25.95,1.82,1.69c.57.74,1.17,1.71,1.79,2.91l7.47,15.56c.2.42.43.62.67.6.32,0,.48-.28.48-.85l-.2-18.26c-.02-.83.2-1.48.65-1.94.45-.46,1.1-.69,1.95-.69h3.4c.85,0,1.5.22,1.95.66.45.44.68,1.09.68,1.94v24.32c0,2.4-.45,4.05-1.35,4.96s-2.51,1.36-4.84,1.36c-.9,0-1.67-.06-2.3-.2-.63-.13-1.27-.39-1.92-.77-.65-.38-1.26-.95-1.82-1.7-.57-.75-1.16-1.71-1.77-2.9l-7.47-15.56c-.2-.42-.42-.62-.67-.6-.32,0-.47.27-.47.82l.2,18.28c.02.83-.2,1.48-.65,1.94-.45.46-1.11.69-1.97.69h-3.4Z"/>
  </g>
  <g>
    <path class="cls-1" d="M249.77,167.53c-2.8,0-4.84-.56-6.14-1.67s-1.95-3.04-1.95-5.77v-18.36c0-2.73.65-4.65,1.95-5.77,1.3-1.12,3.35-1.67,6.14-1.67h14.61c.85,0,1.5.22,1.95.66.45.44.67,1.09.67,1.94v1.92c0,.83-.23,1.47-.67,1.92-.45.45-1.1.68-1.95.68h-11.56c-.83,0-1.39.14-1.67.41-.28.27-.43.73-.43,1.36v4.14h11.26c.85,0,1.5.22,1.94.66.44.44.66,1.09.66,1.93v1.7c0,.85-.22,1.5-.66,1.95-.44.45-1.09.67-1.94.67h-11.26v4.4c0,.63.14,1.08.43,1.35.28.26.84.4,1.67.4h12.44c.85,0,1.5.23,1.94.69s.66,1.1.66,1.93v1.92c0,.85-.22,1.5-.66,1.94s-1.09.66-1.94.66h-15.48Z"/>
    <path class="cls-1" d="M274.87,167.53c-.85,0-1.5-.22-1.93-.66-.44-.44-.66-1.09-.66-1.94v-24.32c0-2.4.44-4.05,1.34-4.96.89-.91,2.51-1.36,4.86-1.36.9,0,1.67.07,2.3.2.63.13,1.27.39,1.91.77s1.25.95,1.82,1.69c.57.74,1.17,1.71,1.79,2.91l7.47,15.56c.2.42.43.62.67.6.32,0,.48-.28.48-.85l-.2-18.26c-.02-.83.2-1.48.65-1.94.45-.46,1.1-.69,1.95-.69h3.4c.85,0,1.5.22,1.95.66.45.44.68,1.09.68,1.94v24.32c0,2.4-.45,4.05-1.35,4.96-.9.91-2.51,1.36-4.84,1.36-.9,0-1.67-.06-2.3-.2-.63-.13-1.27-.39-1.92-.77-.65-.38-1.26-.95-1.82-1.7-.57-.75-1.16-1.71-1.77-2.9l-7.47-15.56c-.2-.42-.42-.62-.67-.6-.32,0-.47.27-.47.82l.2,18.28c.02.83-.2,1.48-.65,1.94-.45.46-1.11.69-1.97.69h-3.4Z"/>
    <path class="cls-1" d="M317.36,167.53c-2.8,0-4.84-.56-6.14-1.67s-1.95-3.04-1.95-5.77v-18.36c0-2.73.65-4.65,1.95-5.77,1.3-1.12,3.35-1.67,6.14-1.67h14.61c.85,0,1.5.22,1.95.66.45.44.67,1.09.67,1.94v1.92c0,.83-.23,1.47-.67,1.92s-1.1.68-1.95.68h-11.56c-.83,0-1.39.14-1.67.41-.28.27-.43.73-.43,1.36v4.14h11.26c.85,0,1.5.22,1.94.66.44.44.66,1.09.66,1.93v1.7c0,.85-.22,1.5-.66,1.95-.44.45-1.09.67-1.94.67h-11.26v4.4c0,.63.14,1.08.43,1.35.28.26.84.4,1.67.4h12.44c.85,0,1.5.23,1.94.69s.66,1.1.66,1.93v1.92c0,.85-.22,1.5-.66,1.94-.44.44-1.09.66-1.94.66h-15.48Z"/>
    <path class="cls-1" d="M367.09,164.41c.5.9.57,1.65.22,2.24-.35.59-1.03.89-2.05.89h-4.77c-1.45,0-2.47-.65-3.05-1.95l-5.32-11.57h-3.32v10.92c0,.85-.22,1.5-.66,1.94-.44.44-1.09.66-1.93.66h-3.85c-.85,0-1.5-.22-1.93-.66-.44-.44-.66-1.09-.66-1.94v-23.2c0-2.73.65-4.65,1.95-5.77s3.35-1.67,6.14-1.67h4.55c2.56,0,4.74.16,6.53.47,1.79.32,3.37.86,4.73,1.62,1.37.77,2.38,1.82,3.05,3.17.67,1.35,1,3.01,1,4.97,0,2.45-.54,4.36-1.62,5.75-1.08,1.38-2.77,2.37-5.07,2.97l6.07,11.16ZM348.8,142.68v5.24h4.7c1.95,0,3.3-.28,4.06-.83s1.14-1.45,1.14-2.67-.38-2.11-1.15-2.67c-.76-.56-2.11-.83-4.04-.83h-2.85c-.73,0-1.22.15-1.47.44-.25.29-.37.74-.37,1.34Z"/>
    <path class="cls-1" d="M391.27,152.27c0-.83.22-1.48.66-1.94.44-.46,1.09-.69,1.94-.69h3.77c.83,0,1.47.23,1.92.67.45.45.67,1.1.67,1.95v8.44c0,1.23-.13,2.27-.4,3.11-.27.84-.66,1.54-1.17,2.09-.52.55-1.25.98-2.21,1.28-.96.3-2.03.51-3.22.62-1.19.12-2.68.18-4.48.18-5.79,0-10.18-1.49-13.16-4.46-2.98-2.97-4.47-7.18-4.47-12.62,0-6.71,2.19-11.5,6.58-14.39,4.39-2.88,10.53-3.46,18.44-1.75,1.55.32,2.32,1.28,2.32,2.9v2.32c0,.88-.25,1.53-.76,1.95-.51.42-1.23.55-2.18.4-2.35-.36-4.35-.55-6.02-.55s-3.09.17-4.27.5c-1.18.33-2.11.88-2.78,1.65-.67.77-1.17,1.71-1.47,2.82-.31,1.12-.46,2.5-.46,4.15,0,3.06.58,5.34,1.75,6.82,1.17,1.48,2.99,2.22,5.47,2.22,1.47,0,2.42-.13,2.87-.37.45-.25.67-.77.67-1.57v-5.72Z"/>
    <path class="cls-1" d="M425.47,136.11c.66-1.21,1.7-1.82,3.12-1.82h4.25c1.03,0,1.71.3,2.05.89.34.59.23,1.34-.33,2.26l-4.87,7.84c-1.5,2.45-2.65,4.23-3.44,5.36-.8,1.12-1.61,1.98-2.45,2.56v11.74c0,.85-.22,1.5-.66,1.94s-1.09.66-1.94.66h-4.57c-.83,0-1.48-.22-1.94-.66s-.69-1.09-.69-1.94v-11.76c-.82-.58-1.62-1.43-2.42-2.54-.8-1.11-1.95-2.89-3.44-5.36l-4.9-7.84c-.55-.9-.66-1.65-.33-2.25.34-.6,1.02-.9,2.07-.9h4.25c1.41,0,2.46.61,3.12,1.82l4.37,7.89c.52.92.91,1.5,1.17,1.77.27.27.61.4,1.02.4s.73-.13,1-.4.66-.86,1.17-1.77l4.37-7.89Z"/>
  </g>
  <g>
    <path class="cls-1" d="M243.68,208.61c-1.31-.36-1.96-1.24-1.96-2.64v-1.37c0-.81.24-1.41.71-1.77.47-.37,1.12-.47,1.95-.3,1.73.3,3.3.5,4.73.59s2.68.06,3.77-.08c1.09-.15,1.94-.44,2.54-.88.6-.44.9-1.02.9-1.75,0-.93-.52-1.7-1.57-2.28-1.05-.59-2.57-.88-4.59-.88h-1.99c-.75,0-1.33-.21-1.74-.61s-.61-.99-.61-1.76v-1.51c0-.77.2-1.35.61-1.76s.98-.61,1.74-.61h1.76c2.02,0,3.5-.29,4.47-.88s1.44-1.34,1.44-2.26c0-.72-.29-1.3-.87-1.74-.58-.43-1.39-.72-2.43-.86-1.04-.14-2.24-.15-3.6-.05-1.36.1-2.88.3-4.55.62-.84.16-1.5.06-1.97-.3s-.71-.95-.71-1.76v-1.19c0-1.39.64-2.26,1.92-2.64,2.29-.68,4.6-1.06,6.95-1.13,2.35-.08,4.49.12,6.44.62s3.54,1.38,4.78,2.66c1.24,1.28,1.86,2.85,1.86,4.71,0,1.6-.44,2.98-1.33,4.18-.89,1.19-2.13,2.13-3.72,2.82,1.75.68,3.1,1.62,4.07,2.84.97,1.22,1.46,2.67,1.46,4.36,0,1.53-.41,2.89-1.24,4.08-.83,1.19-1.93,2.12-3.32,2.79-1.38.66-2.96,1.15-4.71,1.45-1.76.3-3.6.39-5.53.25-1.93-.14-3.81-.45-5.66-.95Z"/>
    <path class="cls-1" d="M288.23,205.55c-2.32,2.69-5.46,4.05-9.43,4.05s-7.12-1.35-9.44-4.05c-2.32-2.7-3.49-6.49-3.49-11.37s1.16-8.68,3.49-11.38c2.32-2.71,5.47-4.06,9.44-4.06s7.11,1.35,9.43,4.06c2.32,2.71,3.47,6.5,3.47,11.38s-1.16,8.67-3.47,11.37ZM278.8,202.92c1.01,0,1.83-.24,2.46-.71.63-.48,1.14-1.37,1.51-2.69.38-1.31.56-3.1.56-5.34s-.19-4.03-.56-5.35c-.38-1.31-.88-2.22-1.51-2.69-.63-.48-1.45-.72-2.46-.72-.75,0-1.4.13-1.93.39s-1,.72-1.4,1.37c-.4.64-.7,1.55-.9,2.71-.2,1.15-.3,2.59-.3,4.3s.1,3.14.3,4.29c.2,1.16.5,2.06.9,2.71.4.65.87,1.1,1.4,1.35.53.26,1.18.39,1.93.39Z"/>
    <path class="cls-1" d="M315.94,205.55c-2.32,2.69-5.46,4.05-9.43,4.05s-7.12-1.35-9.44-4.05c-2.32-2.7-3.49-6.49-3.49-11.37s1.16-8.68,3.49-11.38c2.32-2.71,5.47-4.06,9.44-4.06s7.11,1.35,9.43,4.06c2.32,2.71,3.47,6.5,3.47,11.38s-1.16,8.67-3.47,11.37ZM306.51,202.92c1.01,0,1.83-.24,2.46-.71.63-.48,1.14-1.37,1.51-2.69.38-1.31.56-3.1.56-5.34s-.19-4.03-.56-5.35c-.38-1.31-.88-2.22-1.51-2.69-.63-.48-1.45-.72-2.46-.72-.75,0-1.4.13-1.93.39s-1,.72-1.4,1.37c-.4.64-.7,1.55-.9,2.71-.2,1.15-.3,2.59-.3,4.3s.1,3.14.3,4.29c.2,1.16.5,2.06.9,2.71.4.65.87,1.1,1.4,1.35.53.26,1.18.39,1.93.39Z"/>
    <path class="cls-1" d="M343.64,205.55c-2.32,2.69-5.46,4.05-9.43,4.05s-7.12-1.35-9.44-4.05c-2.32-2.7-3.49-6.49-3.49-11.37s1.16-8.68,3.49-11.38c2.32-2.71,5.47-4.06,9.44-4.06s7.11,1.35,9.43,4.06c2.32,2.71,3.47,6.5,3.47,11.38s-1.16,8.67-3.47,11.37ZM334.21,202.92c1.01,0,1.83-.24,2.46-.71.63-.48,1.14-1.37,1.51-2.69s.56-3.1.56-5.34-.19-4.03-.56-5.35-.88-2.22-1.51-2.69c-.63-.48-1.45-.72-2.46-.72-.75,0-1.4.13-1.93.39s-1,.72-1.4,1.37c-.4.64-.7,1.55-.9,2.71-.2,1.15-.3,2.59-.3,4.3s.1,3.14.3,4.29c.2,1.16.5,2.06.9,2.71.4.65.87,1.1,1.4,1.35.53.26,1.18.39,1.93.39Z"/>
  </g>
  <path class="cls-2" d="M200.13,111.18l-21.44,12.38c-12.08-13.53-32.42-17.25-48.74-7.83-18.68,10.78-25.1,34.75-14.32,53.43,10.78,18.68,34.75,25.1,53.43,14.32,3.89-2.25,7.34-5.12,10.24-8.54,2.85-3.35,2.44-8.38-.91-11.23-3.35-2.85-8.38-2.44-11.23.91-1.72,2.02-3.76,3.73-6.07,5.06-11.07,6.39-25.27,2.58-31.66-8.48-6.39-11.07-2.58-25.27,8.48-31.66,8.64-4.99,19.2-3.76,26.45,2.29l-8.94,5.16-9.91,5.72c-3.81,2.2-5.12,7.07-2.92,10.88,2.2,3.81,7.07,5.12,10.88,2.92l9.91-5.72,17.06-9.85,20.23-11.68c9.95,24.98.31,54.22-23.65,68.05-26.3,15.18-60.05,6.14-75.24-20.16-15.18-26.3-6.14-60.05,20.16-75.24,16.79-9.7,36.99-9.92,54.03-.6,3.86,2.11,8.7.69,10.81-3.17,2.11-3.86.69-8.7-3.17-10.81-21.96-12.01-47.99-11.72-69.64.78-33.91,19.58-45.57,63.09-25.99,97.01,19.58,33.91,63.1,45.57,97.01,25.99,33.91-19.58,45.57-63.1,25.99-97.01-2.2-3.81-7.07-5.12-10.88-2.92Z"/>
  <g>
    <path class="cls-1" d="M365.02,188.2c0-.45.23-.68.68-.68h.44c.45,0,.68.23.68.68v9.37c0,.45-.23.68-.68.68h-.44c-.45,0-.68-.23-.68-.68v-3.98h-5.6v3.98c0,.45-.23.68-.68.68h-.43c-.45,0-.68-.23-.68-.68v-9.37c0-.45.23-.68.68-.68h.43c.45,0,.68.23.68.68v3.71h5.6v-3.71Z"/>
    <path class="cls-1" d="M373.7,198.39c-1.46,0-2.63-.48-3.52-1.43-.89-.95-1.33-2.31-1.33-4.08s.44-3.12,1.33-4.08c.89-.95,2.06-1.43,3.52-1.43s2.63.48,3.52,1.43c.89.96,1.33,2.32,1.33,4.08s-.44,3.13-1.33,4.08c-.89.95-2.06,1.43-3.52,1.43ZM370.65,192.89c0,2.56,1.02,3.84,3.06,3.84s3.06-1.28,3.06-3.84-1.02-3.84-3.06-3.84-3.06,1.28-3.06,3.84Z"/>
    <path class="cls-1" d="M383.06,198.25c-.89,0-1.53-.18-1.92-.55s-.58-.97-.58-1.79v-7.7c0-.45.23-.68.68-.68h.43c.45,0,.68.23.68.68v7.56c0,.25.06.45.19.59.13.14.37.21.73.21h3.73c.45,0,.68.23.68.68v.33c0,.45-.23.68-.68.68h-3.93Z"/>
    <path class="cls-1" d="M391.77,198.25c-.9,0-1.54-.18-1.93-.55-.39-.37-.58-.97-.58-1.79v-6.04c0-.82.19-1.42.58-1.79.39-.37,1.03-.55,1.93-.55h.72c.89,0,1.65.09,2.29.27.64.18,1.19.48,1.65.89.46.41.8.97,1.03,1.66.23.7.34,1.55.34,2.55s-.11,1.85-.34,2.55c-.23.7-.57,1.25-1.03,1.66-.46.41-1.01.71-1.65.89s-1.4.27-2.29.27h-.72ZM391.79,196.57h1.1c.52,0,.96-.06,1.33-.18.37-.12.7-.32.97-.6.27-.28.48-.66.61-1.14.14-.48.21-1.07.21-1.77s-.07-1.28-.21-1.76c-.14-.48-.34-.86-.61-1.14-.27-.28-.59-.48-.96-.6-.37-.12-.82-.18-1.34-.18h-1.1c-.29,0-.49.07-.6.23-.1.15-.15.38-.15.69v5.53c0,.31.05.53.15.69.1.16.3.24.6.24Z"/>
    <path class="cls-1" d="M400.7,198.25c-.45,0-.68-.23-.68-.68v-9.37c0-.45.23-.68.68-.68h.44c.45,0,.68.23.68.68v9.37c0,.45-.23.68-.68.68h-.44Z"/>
    <path class="cls-1" d="M405.2,198.25c-.45,0-.68-.23-.68-.68v-7.95c0-.83.14-1.38.42-1.67.28-.28.76-.43,1.44-.43.26,0,.48.02.66.05.18.04.36.12.55.24.19.13.37.32.54.57.17.25.34.58.51.99l2.87,6.81c.05.12.09.2.13.24.04.04.09.06.15.06.14,0,.21-.11.21-.33v-7.96c0-.45.23-.68.68-.68h.42c.45,0,.68.23.68.68v7.95c0,.83-.14,1.38-.42,1.67-.28.29-.76.43-1.44.43-.26,0-.48-.02-.65-.05-.18-.04-.36-.12-.55-.25-.19-.13-.37-.32-.53-.57-.17-.26-.34-.59-.51-.99l-2.88-6.81c-.05-.12-.09-.2-.13-.24-.04-.04-.09-.06-.15-.06-.14,0-.21.11-.21.33v7.96c0,.45-.23.68-.68.68h-.42Z"/>
    <path class="cls-1" d="M422.68,193.21c0-.45.23-.68.68-.68h.43c.45,0,.68.23.68.68v2.84c0,.57-.1,1.02-.29,1.34-.2.33-.55.58-1.06.74-.51.17-1.22.25-2.13.25-1.7,0-2.99-.49-3.88-1.47-.88-.98-1.32-2.32-1.32-4.04,0-1.42.3-2.58.89-3.5.6-.91,1.45-1.52,2.57-1.81,1.12-.3,2.48-.25,4.1.12.4.1.6.35.6.75v.27c0,.24-.07.41-.21.51-.14.11-.33.14-.57.09-.82-.17-1.53-.25-2.15-.25s-1.15.08-1.58.24c-.44.16-.79.41-1.07.73-.28.33-.48.73-.61,1.19-.13.47-.19,1.02-.19,1.66,0,1.26.26,2.21.79,2.86.53.65,1.36.97,2.51.97.76,0,1.25-.06,1.47-.17s.33-.37.33-.76v-2.57Z"/>
  </g>
</svg>