<?xml version="1.0" encoding="utf-8"?>
<!-- Generator: Adobe Illustrator 28.3.0, SVG Export Plug-In . SVG Version: 6.00 Build 0)  -->
<svg version="1.1" id="Layer_1" xmlns="http://www.w3.org/2000/svg" xmlns:xlink="http://www.w3.org/1999/xlink" x="0px" y="0px"
	 viewBox="0 0 512.7 297.8" style="enable-background:new 0 0 512.7 297.8;" xml:space="preserve">
<style type="text/css">
	.st0{fill:#FFFFFF;}
	.st1{fill:url(#SVGID_1_);}
	.st2{fill:#151858;}
	.st3{fill:#73489C;}
	.st4{fill:url(#SVGID_00000170274934619259125990000002330173080907136441_);}
</style>
<g>
	<g>
		<path class="st2" d="M261.1,107.5c0-0.8,0.2-1.5,0.7-1.9c0.4-0.5,1.1-0.7,1.9-0.7h3.8c0.8,0,1.5,0.2,1.9,0.7
			c0.4,0.5,0.7,1.1,0.7,1.9v8.4c0,1.2-0.1,2.3-0.4,3.1c-0.3,0.8-0.7,1.5-1.2,2.1c-0.5,0.6-1.3,1-2.2,1.3s-2,0.5-3.2,0.6
			c-1.2,0.1-2.7,0.2-4.5,0.2c-5.8,0-10.2-1.5-13.2-4.5c-3-3-4.5-7.2-4.5-12.6c0-6.7,2.2-11.5,6.6-14.4c4.4-2.9,10.5-3.5,18.4-1.7
			c1.5,0.3,2.3,1.3,2.3,2.9v2.3c0,0.9-0.3,1.5-0.8,1.9c-0.5,0.4-1.2,0.6-2.2,0.4c-2.3-0.4-4.4-0.5-6-0.5c-1.7,0-3.1,0.2-4.3,0.5
			c-1.2,0.3-2.1,0.9-2.8,1.6c-0.7,0.8-1.2,1.7-1.5,2.8c-0.3,1.1-0.5,2.5-0.5,4.1c0,3.1,0.6,5.3,1.7,6.8c1.2,1.5,3,2.2,5.5,2.2
			c1.5,0,2.4-0.1,2.9-0.4c0.4-0.3,0.7-0.8,0.7-1.6V107.5z"/>
		<path class="st2" d="M302.6,119.6c0.5,0.9,0.6,1.6,0.2,2.2c-0.3,0.6-1,0.9-2,0.9H296c-1.5,0-2.5-0.6-3-1.9l-5.3-11.6h-3.3v10.9
			c0,0.8-0.2,1.5-0.7,1.9c-0.4,0.4-1.1,0.7-1.9,0.7h-3.8c-0.8,0-1.5-0.2-1.9-0.7c-0.4-0.4-0.7-1.1-0.7-1.9V96.9
			c0-2.7,0.7-4.7,1.9-5.8c1.3-1.1,3.3-1.7,6.1-1.7h4.5c2.6,0,4.7,0.2,6.5,0.5c1.8,0.3,3.4,0.9,4.7,1.6c1.4,0.8,2.4,1.8,3,3.2
			c0.7,1.3,1,3,1,5c0,2.4-0.5,4.4-1.6,5.7c-1.1,1.4-2.8,2.4-5.1,3L302.6,119.6z M284.3,97.9v5.2h4.7c1.9,0,3.3-0.3,4.1-0.8
			c0.8-0.6,1.1-1.4,1.1-2.7c0-1.2-0.4-2.1-1.2-2.7c-0.8-0.6-2.1-0.8-4-0.8h-2.8c-0.7,0-1.2,0.1-1.5,0.4
			C284.4,96.8,284.3,97.3,284.3,97.9z"/>
		<path class="st2" d="M316.3,122.7c-2.8,0-4.8-0.6-6.1-1.7c-1.3-1.1-1.9-3-1.9-5.8V96.9c0-2.7,0.7-4.7,1.9-5.8
			c1.3-1.1,3.3-1.7,6.1-1.7h14.6c0.8,0,1.5,0.2,1.9,0.7c0.4,0.4,0.7,1.1,0.7,1.9V94c0,0.8-0.2,1.5-0.7,1.9c-0.5,0.5-1.1,0.7-1.9,0.7
			h-11.6c-0.8,0-1.4,0.1-1.7,0.4c-0.3,0.3-0.4,0.7-0.4,1.4v4.1h11.3c0.8,0,1.5,0.2,1.9,0.7c0.4,0.4,0.7,1.1,0.7,1.9v1.7
			c0,0.9-0.2,1.5-0.7,1.9c-0.4,0.4-1.1,0.7-1.9,0.7h-11.3v4.4c0,0.6,0.1,1.1,0.4,1.3c0.3,0.3,0.8,0.4,1.7,0.4h12.4
			c0.9,0,1.5,0.2,1.9,0.7c0.4,0.5,0.7,1.1,0.7,1.9v1.9c0,0.8-0.2,1.5-0.7,1.9c-0.4,0.4-1.1,0.7-1.9,0.7H316.3z"/>
		<path class="st2" d="M346.5,122.7c-2.8,0-4.8-0.6-6.1-1.7c-1.3-1.1-1.9-3-1.9-5.8V96.9c0-2.7,0.7-4.7,1.9-5.8
			c1.3-1.1,3.3-1.7,6.1-1.7h14.6c0.8,0,1.5,0.2,1.9,0.7c0.4,0.4,0.7,1.1,0.7,1.9V94c0,0.8-0.2,1.5-0.7,1.9c-0.5,0.5-1.1,0.7-1.9,0.7
			h-11.6c-0.8,0-1.4,0.1-1.7,0.4c-0.3,0.3-0.4,0.7-0.4,1.4v4.1h11.3c0.8,0,1.5,0.2,1.9,0.7c0.4,0.4,0.7,1.1,0.7,1.9v1.7
			c0,0.9-0.2,1.5-0.7,1.9c-0.4,0.4-1.1,0.7-1.9,0.7h-11.3v4.4c0,0.6,0.1,1.1,0.4,1.3c0.3,0.3,0.8,0.4,1.7,0.4H362
			c0.9,0,1.5,0.2,1.9,0.7c0.4,0.5,0.7,1.1,0.7,1.9v1.9c0,0.8-0.2,1.5-0.7,1.9c-0.4,0.4-1.1,0.7-1.9,0.7H346.5z"/>
		<path class="st2" d="M371.6,122.7c-0.8,0-1.5-0.2-1.9-0.7c-0.4-0.4-0.7-1.1-0.7-1.9V95.8c0-2.4,0.4-4,1.3-5
			c0.9-0.9,2.5-1.4,4.9-1.4c0.9,0,1.7,0.1,2.3,0.2c0.6,0.1,1.3,0.4,1.9,0.8s1.3,0.9,1.8,1.7c0.6,0.7,1.2,1.7,1.8,2.9l7.5,15.6
			c0.2,0.4,0.4,0.6,0.7,0.6c0.3,0,0.5-0.3,0.5-0.8l-0.2-18.3c0-0.8,0.2-1.5,0.6-1.9c0.5-0.5,1.1-0.7,1.9-0.7h3.4
			c0.8,0,1.5,0.2,1.9,0.7c0.5,0.4,0.7,1.1,0.7,1.9v24.3c0,2.4-0.5,4.1-1.4,5c-0.9,0.9-2.5,1.4-4.8,1.4c-0.9,0-1.7-0.1-2.3-0.2
			c-0.6-0.1-1.3-0.4-1.9-0.8c-0.7-0.4-1.3-1-1.8-1.7c-0.6-0.8-1.2-1.7-1.8-2.9l-7.5-15.6c-0.2-0.4-0.4-0.6-0.7-0.6
			c-0.3,0-0.5,0.3-0.5,0.8l0.2,18.3c0,0.8-0.2,1.5-0.7,1.9c-0.4,0.5-1.1,0.7-2,0.7H371.6z"/>
	</g>
	<g>
		<path class="st2" d="M249.1,167.3c-2.8,0-4.8-0.6-6.1-1.7c-1.3-1.1-1.9-3-1.9-5.8v-18.4c0-2.7,0.7-4.7,1.9-5.8s3.3-1.7,6.1-1.7
			h14.6c0.8,0,1.5,0.2,1.9,0.7c0.4,0.4,0.7,1.1,0.7,1.9v1.9c0,0.8-0.2,1.5-0.7,1.9c-0.5,0.5-1.1,0.7-1.9,0.7h-11.6
			c-0.8,0-1.4,0.1-1.7,0.4c-0.3,0.3-0.4,0.7-0.4,1.4v4.1h11.3c0.8,0,1.5,0.2,1.9,0.7c0.4,0.4,0.7,1.1,0.7,1.9v1.7
			c0,0.9-0.2,1.5-0.7,1.9c-0.4,0.4-1.1,0.7-1.9,0.7H250v4.4c0,0.6,0.1,1.1,0.4,1.3c0.3,0.3,0.8,0.4,1.7,0.4h12.4
			c0.9,0,1.5,0.2,1.9,0.7c0.4,0.5,0.7,1.1,0.7,1.9v1.9c0,0.8-0.2,1.5-0.7,1.9c-0.4,0.4-1.1,0.7-1.9,0.7H249.1z"/>
		<path class="st2" d="M274.2,167.3c-0.8,0-1.5-0.2-1.9-0.7c-0.4-0.4-0.7-1.1-0.7-1.9v-24.3c0-2.4,0.4-4,1.3-5
			c0.9-0.9,2.5-1.4,4.9-1.4c0.9,0,1.7,0.1,2.3,0.2c0.6,0.1,1.3,0.4,1.9,0.8c0.6,0.4,1.3,0.9,1.8,1.7c0.6,0.7,1.2,1.7,1.8,2.9
			l7.5,15.6c0.2,0.4,0.4,0.6,0.7,0.6c0.3,0,0.5-0.3,0.5-0.8l-0.2-18.3c0-0.8,0.2-1.5,0.6-1.9c0.5-0.5,1.1-0.7,1.9-0.7h3.4
			c0.8,0,1.5,0.2,1.9,0.7c0.5,0.4,0.7,1.1,0.7,1.9V161c0,2.4-0.5,4.1-1.4,5c-0.9,0.9-2.5,1.4-4.8,1.4c-0.9,0-1.7-0.1-2.3-0.2
			c-0.6-0.1-1.3-0.4-1.9-0.8c-0.7-0.4-1.3-1-1.8-1.7c-0.6-0.8-1.2-1.7-1.8-2.9l-7.5-15.6c-0.2-0.4-0.4-0.6-0.7-0.6
			c-0.3,0-0.5,0.3-0.5,0.8l0.2,18.3c0,0.8-0.2,1.5-0.7,1.9c-0.4,0.5-1.1,0.7-2,0.7H274.2z"/>
		<path class="st2" d="M316.7,167.3c-2.8,0-4.8-0.6-6.1-1.7c-1.3-1.1-1.9-3-1.9-5.8v-18.4c0-2.7,0.7-4.7,1.9-5.8
			c1.3-1.1,3.3-1.7,6.1-1.7h14.6c0.8,0,1.5,0.2,1.9,0.7c0.4,0.4,0.7,1.1,0.7,1.9v1.9c0,0.8-0.2,1.5-0.7,1.9
			c-0.5,0.5-1.1,0.7-1.9,0.7h-11.6c-0.8,0-1.4,0.1-1.7,0.4c-0.3,0.3-0.4,0.7-0.4,1.4v4.1h11.3c0.8,0,1.5,0.2,1.9,0.7
			c0.4,0.4,0.7,1.1,0.7,1.9v1.7c0,0.9-0.2,1.5-0.7,1.9c-0.4,0.4-1.1,0.7-1.9,0.7h-11.3v4.4c0,0.6,0.1,1.1,0.4,1.3
			c0.3,0.3,0.8,0.4,1.7,0.4h12.4c0.9,0,1.5,0.2,1.9,0.7c0.4,0.5,0.7,1.1,0.7,1.9v1.9c0,0.8-0.2,1.5-0.7,1.9
			c-0.4,0.4-1.1,0.7-1.9,0.7H316.7z"/>
		<path class="st2" d="M366.4,164.2c0.5,0.9,0.6,1.6,0.2,2.2c-0.3,0.6-1,0.9-2,0.9h-4.8c-1.5,0-2.5-0.6-3-1.9l-5.3-11.6h-3.3v10.9
			c0,0.8-0.2,1.5-0.7,1.9c-0.4,0.4-1.1,0.7-1.9,0.7h-3.8c-0.8,0-1.5-0.2-1.9-0.7c-0.4-0.4-0.7-1.1-0.7-1.9v-23.2
			c0-2.7,0.7-4.7,1.9-5.8c1.3-1.1,3.3-1.7,6.1-1.7h4.5c2.6,0,4.7,0.2,6.5,0.5c1.8,0.3,3.4,0.9,4.7,1.6c1.4,0.8,2.4,1.8,3,3.2
			c0.7,1.3,1,3,1,5c0,2.4-0.5,4.4-1.6,5.7c-1.1,1.4-2.8,2.4-5.1,3L366.4,164.2z M348.1,142.4v5.2h4.7c1.9,0,3.3-0.3,4.1-0.8
			c0.8-0.6,1.1-1.4,1.1-2.7c0-1.2-0.4-2.1-1.2-2.7c-0.8-0.6-2.1-0.8-4-0.8H350c-0.7,0-1.2,0.1-1.5,0.4
			C348.2,141.4,348.1,141.8,348.1,142.4z"/>
		<path class="st2" d="M390.6,152c0-0.8,0.2-1.5,0.7-1.9c0.4-0.5,1.1-0.7,1.9-0.7h3.8c0.8,0,1.5,0.2,1.9,0.7
			c0.4,0.5,0.7,1.1,0.7,1.9v8.4c0,1.2-0.1,2.3-0.4,3.1c-0.3,0.8-0.7,1.5-1.2,2.1c-0.5,0.6-1.3,1-2.2,1.3c-1,0.3-2,0.5-3.2,0.6
			c-1.2,0.1-2.7,0.2-4.5,0.2c-5.8,0-10.2-1.5-13.2-4.5c-3-3-4.5-7.2-4.5-12.6c0-6.7,2.2-11.5,6.6-14.4c4.4-2.9,10.5-3.5,18.4-1.7
			c1.5,0.3,2.3,1.3,2.3,2.9v2.3c0,0.9-0.3,1.5-0.8,1.9c-0.5,0.4-1.2,0.6-2.2,0.4c-2.3-0.4-4.4-0.5-6-0.5c-1.7,0-3.1,0.2-4.3,0.5
			c-1.2,0.3-2.1,0.9-2.8,1.6c-0.7,0.8-1.2,1.7-1.5,2.8c-0.3,1.1-0.5,2.5-0.5,4.1c0,3.1,0.6,5.3,1.7,6.8c1.2,1.5,3,2.2,5.5,2.2
			c1.5,0,2.4-0.1,2.9-0.4c0.4-0.3,0.7-0.8,0.7-1.6V152z"/>
		<path class="st2" d="M424.8,135.9c0.7-1.2,1.7-1.8,3.1-1.8h4.2c1,0,1.7,0.3,2,0.9c0.3,0.6,0.2,1.3-0.3,2.3L429,145
			c-1.5,2.4-2.6,4.2-3.4,5.4c-0.8,1.1-1.6,2-2.4,2.6v11.7c0,0.8-0.2,1.5-0.7,1.9c-0.4,0.4-1.1,0.7-1.9,0.7h-4.6
			c-0.8,0-1.5-0.2-1.9-0.7c-0.5-0.4-0.7-1.1-0.7-1.9v-11.8c-0.8-0.6-1.6-1.4-2.4-2.5c-0.8-1.1-1.9-2.9-3.4-5.4l-4.9-7.8
			c-0.5-0.9-0.7-1.6-0.3-2.2c0.3-0.6,1-0.9,2.1-0.9h4.2c1.4,0,2.5,0.6,3.1,1.8l4.4,7.9c0.5,0.9,0.9,1.5,1.2,1.8
			c0.3,0.3,0.6,0.4,1,0.4c0.4,0,0.7-0.1,1-0.4c0.3-0.3,0.7-0.9,1.2-1.8L424.8,135.9z"/>
	</g>
	<g>
		<path class="st3" d="M243,208.4c-1.3-0.4-2-1.2-2-2.6v-1.4c0-0.8,0.2-1.4,0.7-1.8c0.5-0.4,1.1-0.5,2-0.3c1.7,0.3,3.3,0.5,4.7,0.6
			c1.4,0.1,2.7,0.1,3.8-0.1c1.1-0.1,1.9-0.4,2.5-0.9c0.6-0.4,0.9-1,0.9-1.7c0-0.9-0.5-1.7-1.6-2.3s-2.6-0.9-4.6-0.9h-2
			c-0.8,0-1.3-0.2-1.7-0.6s-0.6-1-0.6-1.8v-1.5c0-0.8,0.2-1.4,0.6-1.8s1-0.6,1.7-0.6h1.8c2,0,3.5-0.3,4.5-0.9c1-0.6,1.4-1.3,1.4-2.3
			c0-0.7-0.3-1.3-0.9-1.7c-0.6-0.4-1.4-0.7-2.4-0.9c-1-0.1-2.2-0.2-3.6-0.1c-1.4,0.1-2.9,0.3-4.5,0.6c-0.8,0.2-1.5,0.1-2-0.3
			c-0.5-0.4-0.7-0.9-0.7-1.8v-1.2c0-1.4,0.6-2.3,1.9-2.6c2.3-0.7,4.6-1.1,6.9-1.1c2.3-0.1,4.5,0.1,6.4,0.6c1.9,0.5,3.5,1.4,4.8,2.7
			c1.2,1.3,1.9,2.8,1.9,4.7c0,1.6-0.4,3-1.3,4.2c-0.9,1.2-2.1,2.1-3.7,2.8c1.7,0.7,3.1,1.6,4.1,2.8c1,1.2,1.5,2.7,1.5,4.4
			c0,1.5-0.4,2.9-1.2,4.1c-0.8,1.2-1.9,2.1-3.3,2.8c-1.4,0.7-3,1.2-4.7,1.5c-1.8,0.3-3.6,0.4-5.5,0.2S244.8,208.9,243,208.4z"/>
		<path class="st3" d="M287.6,205.3c-2.3,2.7-5.5,4-9.4,4s-7.1-1.4-9.4-4c-2.3-2.7-3.5-6.5-3.5-11.4c0-4.9,1.2-8.7,3.5-11.4
			s5.5-4.1,9.4-4.1s7.1,1.4,9.4,4.1c2.3,2.7,3.5,6.5,3.5,11.4C291,198.8,289.9,202.6,287.6,205.3z M278.1,202.7c1,0,1.8-0.2,2.5-0.7
			c0.6-0.5,1.1-1.4,1.5-2.7c0.4-1.3,0.6-3.1,0.6-5.3c0-2.2-0.2-4-0.6-5.3c-0.4-1.3-0.9-2.2-1.5-2.7c-0.6-0.5-1.5-0.7-2.5-0.7
			c-0.8,0-1.4,0.1-1.9,0.4c-0.5,0.3-1,0.7-1.4,1.4c-0.4,0.6-0.7,1.6-0.9,2.7c-0.2,1.2-0.3,2.6-0.3,4.3c0,1.7,0.1,3.1,0.3,4.3
			c0.2,1.2,0.5,2.1,0.9,2.7c0.4,0.6,0.9,1.1,1.4,1.4C276.7,202.5,277.4,202.7,278.1,202.7z"/>
		<path class="st3" d="M315.3,205.3c-2.3,2.7-5.5,4-9.4,4c-4,0-7.1-1.4-9.4-4c-2.3-2.7-3.5-6.5-3.5-11.4c0-4.9,1.2-8.7,3.5-11.4
			s5.5-4.1,9.4-4.1c4,0,7.1,1.4,9.4,4.1s3.5,6.5,3.5,11.4C318.7,198.8,317.6,202.6,315.3,205.3z M305.8,202.7c1,0,1.8-0.2,2.5-0.7
			c0.6-0.5,1.1-1.4,1.5-2.7c0.4-1.3,0.6-3.1,0.6-5.3c0-2.2-0.2-4-0.6-5.3c-0.4-1.3-0.9-2.2-1.5-2.7c-0.6-0.5-1.5-0.7-2.5-0.7
			c-0.8,0-1.4,0.1-1.9,0.4c-0.5,0.3-1,0.7-1.4,1.4c-0.4,0.6-0.7,1.6-0.9,2.7c-0.2,1.2-0.3,2.6-0.3,4.3c0,1.7,0.1,3.1,0.3,4.3
			c0.2,1.2,0.5,2.1,0.9,2.7c0.4,0.6,0.9,1.1,1.4,1.4C304.4,202.5,305.1,202.7,305.8,202.7z"/>
		<path class="st3" d="M343,205.3c-2.3,2.7-5.5,4-9.4,4c-4,0-7.1-1.4-9.4-4c-2.3-2.7-3.5-6.5-3.5-11.4c0-4.9,1.2-8.7,3.5-11.4
			s5.5-4.1,9.4-4.1c4,0,7.1,1.4,9.4,4.1s3.5,6.5,3.5,11.4C346.4,198.8,345.3,202.6,343,205.3z M333.5,202.7c1,0,1.8-0.2,2.5-0.7
			c0.6-0.5,1.1-1.4,1.5-2.7c0.4-1.3,0.6-3.1,0.6-5.3c0-2.2-0.2-4-0.6-5.3c-0.4-1.3-0.9-2.2-1.5-2.7c-0.6-0.5-1.5-0.7-2.5-0.7
			c-0.8,0-1.4,0.1-1.9,0.4c-0.5,0.3-1,0.7-1.4,1.4c-0.4,0.6-0.7,1.6-0.9,2.7c-0.2,1.2-0.3,2.6-0.3,4.3c0,1.7,0.1,3.1,0.3,4.3
			c0.2,1.2,0.5,2.1,0.9,2.7c0.4,0.6,0.9,1.1,1.4,1.4C332.1,202.5,332.8,202.7,333.5,202.7z"/>
	</g>
	
		<radialGradient id="SVGID_1_" cx="133.5964" cy="100.664" r="78.0455" gradientTransform="matrix(0.866 -0.5 0.5 0.866 -22.2315 115.8693)" gradientUnits="userSpaceOnUse">
		<stop  offset="0" style="stop-color:#FBB224"/>
		<stop  offset="0.6" style="stop-color:#B34197"/>
		<stop  offset="1" style="stop-color:#73489C"/>
	</radialGradient>
	<path class="st1" d="M199.5,110.9L178,123.3c-12.1-13.5-32.4-17.2-48.7-7.8c-18.7,10.8-25.1,34.8-14.3,53.4s34.8,25.1,53.4,14.3
		c3.9-2.2,7.3-5.1,10.2-8.5c2.8-3.4,2.4-8.4-0.9-11.2s-8.4-2.4-11.2,0.9c-1.7,2-3.8,3.7-6.1,5.1c-11.1,6.4-25.3,2.6-31.7-8.5
		c-6.4-11.1-2.6-25.3,8.5-31.7c8.6-5,19.2-3.8,26.5,2.3l-8.9,5.2l-9.9,5.7c-3.8,2.2-5.1,7.1-2.9,10.9s7.1,5.1,10.9,2.9l9.9-5.7
		l17.1-9.9L200,129c9.9,25,0.3,54.2-23.6,68c-26.3,15.2-60.1,6.1-75.2-20.2s-6.1-60.1,20.2-75.2c16.8-9.7,37-9.9,54-0.6
		c3.9,2.1,8.7,0.7,10.8-3.2c2.1-3.9,0.7-8.7-3.2-10.8c-22-12-48-11.7-69.6,0.8c-33.9,19.6-45.6,63.1-26,97s63.1,45.6,97,26
		c33.9-19.6,45.6-63.1,26-97C208.1,110,203.3,108.7,199.5,110.9z"/>
	<g>
		<path class="st2" d="M363.3,193c0-0.5,0.2-0.7,0.7-0.7h0.4c0.5,0,0.7,0.2,0.7,0.7v2.8c0,0.6-0.1,1-0.3,1.3
			c-0.2,0.3-0.5,0.6-1.1,0.7c-0.5,0.2-1.2,0.3-2.1,0.3c-1.7,0-3-0.5-3.9-1.5c-0.9-1-1.3-2.3-1.3-4c0-1.4,0.3-2.6,0.9-3.5
			s1.5-1.5,2.6-1.8c1.1-0.3,2.5-0.3,4.1,0.1c0.4,0.1,0.6,0.3,0.6,0.7v0.3c0,0.2-0.1,0.4-0.2,0.5c-0.1,0.1-0.3,0.1-0.6,0.1
			c-0.8-0.2-1.5-0.3-2.2-0.3c-0.6,0-1.1,0.1-1.6,0.2c-0.4,0.2-0.8,0.4-1.1,0.7c-0.3,0.3-0.5,0.7-0.6,1.2c-0.1,0.5-0.2,1-0.2,1.7
			c0,1.3,0.3,2.2,0.8,2.9c0.5,0.6,1.4,1,2.5,1c0.8,0,1.3-0.1,1.5-0.2c0.2-0.1,0.3-0.4,0.3-0.8V193z"/>
		<path class="st2" d="M369.8,198c-0.9,0-1.5-0.2-1.9-0.6s-0.6-1-0.6-1.8v-6c0-0.8,0.2-1.4,0.6-1.8c0.4-0.4,1-0.6,1.9-0.6h4.3
			c0.5,0,0.7,0.2,0.7,0.7v0.3c0,0.5-0.2,0.7-0.7,0.7H370c-0.4,0-0.6,0.1-0.7,0.2c-0.1,0.1-0.2,0.3-0.2,0.6v2h4.1
			c0.5,0,0.7,0.2,0.7,0.7v0.3c0,0.5-0.2,0.7-0.7,0.7h-4.1v2.1c0,0.3,0.1,0.5,0.2,0.6c0.1,0.1,0.4,0.2,0.7,0.2h4.4
			c0.5,0,0.7,0.2,0.7,0.7v0.3c0,0.5-0.2,0.7-0.7,0.7H369.8z"/>
		<path class="st2" d="M384.8,197.2c0.1,0.2,0.2,0.4,0.1,0.6c-0.1,0.2-0.3,0.2-0.5,0.2h-0.7c-0.4,0-0.6-0.2-0.8-0.5l-2.3-4h-2v3.8
			c0,0.5-0.2,0.7-0.7,0.7h-0.4c-0.5,0-0.7-0.2-0.7-0.7v-7.7c0-0.8,0.2-1.4,0.6-1.8c0.4-0.4,1-0.6,1.9-0.6h1.3c0.7,0,1.3,0.1,1.8,0.2
			c0.5,0.1,1,0.3,1.4,0.5c0.4,0.2,0.7,0.6,0.9,1c0.2,0.4,0.3,0.9,0.3,1.5c0,0.9-0.2,1.5-0.6,2c-0.4,0.5-1.1,0.8-1.9,1L384.8,197.2z
			 M378.6,189.7v2.1h2.2c0.9,0,1.5-0.1,1.9-0.3c0.4-0.2,0.5-0.6,0.5-1.1s-0.2-0.9-0.5-1.1c-0.4-0.2-1-0.3-1.9-0.3h-1.4
			c-0.3,0-0.5,0.1-0.6,0.2C378.6,189.3,378.6,189.5,378.6,189.7z"/>
		<path class="st2" d="M387.1,198c-0.2,0-0.4-0.1-0.5-0.2c-0.1-0.1-0.2-0.3-0.1-0.5l1-8.2c0.1-0.7,0.3-1.2,0.6-1.5
			c0.3-0.3,0.7-0.5,1.3-0.5c0.6,0,1,0.2,1.3,0.5c0.3,0.3,0.5,0.8,0.7,1.5l1.4,6.8c0,0.2,0.1,0.4,0.3,0.4c0.1,0,0.2-0.1,0.3-0.4
			l1.4-6.8c0.1-0.7,0.4-1.2,0.7-1.5c0.3-0.3,0.7-0.5,1.3-0.5c0.6,0,1,0.2,1.3,0.5c0.3,0.3,0.5,0.8,0.6,1.5l1,8.2
			c0,0.2,0,0.4-0.1,0.5c-0.1,0.1-0.3,0.2-0.5,0.2h-0.5c-0.4,0-0.7-0.2-0.7-0.6l-1-8.2c0-0.1-0.1-0.1-0.2-0.1c-0.1,0-0.1,0-0.2,0.1
			l-1.5,7.4c-0.1,0.5-0.3,0.9-0.6,1.1s-0.7,0.3-1.3,0.3c-0.5,0-1-0.1-1.3-0.3c-0.3-0.2-0.5-0.6-0.6-1.1l-1.5-7.4
			c0-0.1-0.1-0.1-0.2-0.1c-0.1,0-0.1,0-0.2,0.1l-1,8.2c0,0.4-0.3,0.6-0.7,0.6H387.1z"/>
		<path class="st2" d="M409.9,198c-0.4,0-0.6-0.2-0.8-0.6l-0.7-2.4h-5.1l-0.7,2.4c-0.1,0.4-0.4,0.6-0.8,0.6h-0.4
			c-0.2,0-0.4-0.1-0.5-0.2c-0.1-0.1-0.1-0.3,0-0.6l2.3-7.6c0.3-0.9,0.6-1.6,1-1.9c0.4-0.4,1-0.6,1.7-0.6c0.7,0,1.3,0.2,1.7,0.6
			c0.4,0.4,0.7,1,1,1.9l2.4,7.6c0.1,0.2,0.1,0.4,0,0.6c-0.1,0.1-0.3,0.2-0.5,0.2H409.9z M403.7,193.4h4.1l-1.1-3.5
			c-0.1-0.4-0.3-0.7-0.4-0.9c-0.1-0.2-0.3-0.2-0.6-0.2s-0.4,0.1-0.6,0.2c-0.1,0.2-0.3,0.4-0.4,0.9L403.7,193.4z"/>
		<path class="st2" d="M413.3,198c-0.5,0-0.7-0.2-0.7-0.7v-8c0-0.8,0.1-1.4,0.4-1.7c0.3-0.3,0.8-0.4,1.4-0.4c0.3,0,0.5,0,0.7,0.1
			c0.2,0,0.4,0.1,0.6,0.2c0.2,0.1,0.4,0.3,0.5,0.6c0.2,0.3,0.3,0.6,0.5,1l2.9,6.8c0,0.1,0.1,0.2,0.1,0.2c0,0,0.1,0.1,0.1,0.1
			c0.1,0,0.2-0.1,0.2-0.3v-8c0-0.5,0.2-0.7,0.7-0.7h0.4c0.5,0,0.7,0.2,0.7,0.7v8c0,0.8-0.1,1.4-0.4,1.7c-0.3,0.3-0.8,0.4-1.4,0.4
			c-0.3,0-0.5,0-0.7-0.1c-0.2,0-0.4-0.1-0.6-0.2c-0.2-0.1-0.4-0.3-0.5-0.6c-0.2-0.3-0.3-0.6-0.5-1l-2.9-6.8c0-0.1-0.1-0.2-0.1-0.2
			c0,0-0.1-0.1-0.1-0.1c-0.1,0-0.2,0.1-0.2,0.3v8c0,0.5-0.2,0.7-0.7,0.7H413.3z"/>
		<path class="st2" d="M431.3,187.7c0.2-0.3,0.5-0.4,0.8-0.4h0.6c0.3,0,0.5,0.1,0.5,0.2c0.1,0.2,0.1,0.3-0.1,0.6l-1.9,2.9
			c-0.5,0.7-0.8,1.2-1.1,1.5c-0.3,0.3-0.5,0.5-0.8,0.7v4.1c0,0.5-0.2,0.7-0.7,0.7h-0.5c-0.5,0-0.7-0.2-0.7-0.7v-4.1
			c-0.3-0.1-0.5-0.3-0.8-0.7c-0.3-0.3-0.6-0.8-1.1-1.5l-1.9-2.9c-0.2-0.2-0.2-0.4-0.1-0.6c0.1-0.2,0.3-0.2,0.5-0.2h0.6
			c0.3,0,0.6,0.1,0.8,0.4l1.9,3c0.2,0.4,0.4,0.6,0.6,0.7c0.1,0.1,0.3,0.2,0.5,0.2c0.2,0,0.3-0.1,0.5-0.2c0.1-0.1,0.3-0.4,0.6-0.7
			L431.3,187.7z"/>
	</g>
</g>
</svg>
