<?xml version="1.0" standalone="no"?>
<!DOCTYPE svg PUBLIC "-//W3C//DTD SVG 20010904//EN"
 "http://www.w3.org/TR/2001/REC-SVG-20010904/DTD/svg10.dtd">
<svg version="1.0" xmlns="http://www.w3.org/2000/svg"
 width="390.000000pt" height="502.000000pt" viewBox="0 0 390.000000 502.000000"
 preserveAspectRatio="xMidYMid meet">

<g transform="translate(0.000000,502.000000) scale(0.100000,-0.100000)"
fill="#6610f2" stroke="none">
<path d="M670 3733 c-30 -1 -104 -7 -165 -13 -100 -10 -115 -14 -162 -45 -58
-39 -95 -89 -125 -174 -18 -48 -21 -86 -24 -259 -2 -126 0 -211 7 -223 9 -19
50 -19 1758 -19 1526 0 1750 2 1761 15 9 11 11 71 8 237 -4 203 -6 228 -27
279 -24 60 -74 118 -131 154 -82 51 -28 49 -1485 50 -748 1 -1385 0 -1415 -2z"/>
<path d="M204 2828 c-11 -18 -15 -356 -4 -421 19 -119 94 -229 190 -279 45
-23 47 -23 475 -26 320 -2 431 -6 437 -15 13 -21 9 -66 -8 -75 -9 -5 -242 -7
-549 -4 -519 5 -533 4 -543 -15 -13 -23 -16 -662 -4 -681 7 -11 146 -13 716
-12 688 0 708 1 759 21 28 11 60 28 71 37 37 34 73 99 96 172 21 67 24 100 27
315 6 305 -10 692 -31 759 -42 133 -135 203 -299 225 -115 16 -1323 15 -1333
-1z"/>
<path d="M2062 2807 c-14 -16 -18 -1485 -5 -1498 10 -10 487 -14 503 -4 6 4
10 137 10 374 0 301 3 371 14 387 14 18 30 19 403 19 343 0 397 2 468 19 137
32 192 73 241 181 28 60 28 60 28 295 l1 235 -826 3 c-671 2 -828 0 -837 -11z"/>
</g>
</svg>
