<svg version="1.1" id="Layer_1" xmlns="http://www.w3.org/2000/svg" x="0" y="0" viewBox="0 0 92.6 119.6" xml:space="preserve"><style>.st1{fill:#f58}</style><path class="st1" d="M20.9 37.9l5.5 5.6 5.3-5.4-11.9-11.9L0 46l25.8 25.8 5.3-5.3-19.3-19.3z"/><path class="st1" d="M10.5 74.4l7.2-7.3-5.2-5.2L.1 74.4 18.7 93l26.2-26.5-5.3-5.3-21 21.2zm25.2-21.7l18 18.1 5.3-5.3-18-18.1zm19.6 32.4l16.9-16.9-5.1-5.1-16.8 17zM26.7 56.5l16.9-16.9-5.1-5.1-16.8 17zm55-10.3l-6 6 5.2 5.2 11.2-11.3-18.6-18.6-23.8 24.1 5.3 5.3 18.7-18.8zM39.6 89l5 5-7.2 7.3 7.8 7.7 8.9-8.9-19.3-19.3 5.3-5.3 24.6 24.6-19.4 19.5-18.1-18.1z"/><path class="st1" d="M74 80.5l-5.5-5.6-5.3 5.4L73.9 91l18.7-18.7-24.7-24.6-5.3 5.3 19.3 19.3zM52.9 29.4l-5-5 6-6-7.8-7.8-7.6 7.6 20.4 20.4-5.3 5.4-25.8-25.8L46 0l18.1 18.1z"/></svg>