<svg xmlns="http://www.w3.org/2000/svg" xmlns:xlink="http://www.w3.org/1999/xlink" version="1.1" width="1000" height="1000" viewBox="0 0 1000 1000" xml:space="preserve">
<desc>Created with Fabric.js 3.5.0</desc>
<defs>
</defs>
<rect x="0" y="0" width="100%" height="100%" fill="rgba(255,255,255,0)"/>
<g transform="matrix(1.9315 0 0 1.9315 502.19 536.5446)" id="792466">
<g style="" vector-effect="non-scaling-stroke">
		<g transform="matrix(0.1333 0 0 -0.1333 1.4454 -114.3718)">
<path style="stroke: none; stroke-width: 1; stroke-dasharray: none; stroke-linecap: butt; stroke-dashoffset: 0; stroke-linejoin: miter; stroke-miterlimit: 4; is-custom-font: none; font-file-url: none; fill: rgb(102,16,242); fill-rule: nonzero; opacity: 1;" transform=" translate(-1961.2826, -3367.6962)" d="M 670 3733 c -30 -1 -104 -7 -165 -13 c -100 -10 -115 -14 -162 -45 c -58 -39 -95 -89 -125 -174 c -18 -48 -21 -86 -24 -259 c -2 -126 0 -211 7 -223 c 9 -19 50 -19 1758 -19 c 1526 0 1750 2 1761 15 c 9 11 11 71 8 237 c -4 203 -6 228 -27 279 c -24 60 -74 118 -131 154 c -82 51 -28 49 -1485 50 c -748 1 -1385 0 -1415 -2 z" stroke-linecap="round"/>
</g>
		<g transform="matrix(0.1333 0 0 -0.1333 -122.7802 58.622)">
<path style="stroke: none; stroke-width: 1; stroke-dasharray: none; stroke-linecap: butt; stroke-dashoffset: 0; stroke-linejoin: miter; stroke-miterlimit: 4; is-custom-font: none; font-file-url: none; fill: rgb(102,16,242); fill-rule: nonzero; opacity: 1;" transform=" translate(-1029.3586, -2070.1421)" d="M 204 2828 c -11 -18 -15 -356 -4 -421 c 19 -119 94 -229 190 -279 c 45 -23 47 -23 475 -26 c 320 -2 431 -6 437 -15 c 13 -21 9 -66 -8 -75 c -9 -5 -242 -7 -549 -4 c -519 5 -533 4 -543 -15 c -13 -23 -16 -662 -4 -681 c 7 -11 146 -13 716 -12 c 688 0 708 1 759 21 c 28 11 60 28 71 37 c 37 34 73 99 96 172 c 21 67 24 100 27 315 c 6 305 -10 692 -31 759 c -42 133 -135 203 -299 225 c -115 16 -1323 15 -1333 -1 z" stroke-linecap="round"/>
</g>
		<g transform="matrix(0.1333 0 0 -0.1333 124.9119 60.1151)">
<path style="stroke: none; stroke-width: 1; stroke-dasharray: none; stroke-linecap: butt; stroke-dashoffset: 0; stroke-linejoin: miter; stroke-miterlimit: 4; is-custom-font: none; font-file-url: none; fill: rgb(102,16,242); fill-rule: nonzero; opacity: 1;" transform=" translate(-2887.0488, -2058.9468)" d="M 2062 2807 c -14 -16 -18 -1485 -5 -1498 c 10 -10 487 -14 503 -4 c 6 4 10 137 10 374 c 0 301 3 371 14 387 c 14 18 30 19 403 19 c 343 0 397 2 468 19 c 137 32 192 73 241 181 c 28 60 28 60 28 295 l 1 235 l -826 3 c -671 2 -828 0 -837 -11 z" stroke-linecap="round"/>
</g>
</g>
</g>
</svg>